<svg xmlns="http://www.w3.org/2000/svg" version="1.1" xmlns:xlink="http://www.w3.org/1999/xlink" xmlns:svgjs="http://svgjs.dev/svgjs" width="2000" height="657" viewBox="0 0 2000 657"><g transform="matrix(1,0,0,1,-0.9447020829151143,-0.6629413958622763)"><svg viewBox="0 0 283 93" data-background-color="#ffffff" preserveAspectRatio="xMidYMid meet" height="657" width="2000" xmlns="http://www.w3.org/2000/svg" xmlns:xlink="http://www.w3.org/1999/xlink"><g id="tight-bounds" transform="matrix(1,0,0,1,0.1336753447324952,0.09384101950561785)"><svg viewBox="0 0 282.732649310535 92.81231796098875" height="92.81231796098875" width="282.732649310535"><g><svg viewBox="0 0 282.732649310535 92.81231796098875" height="92.81231796098875" width="282.732649310535"><g><svg viewBox="0 0 282.732649310535 92.81231796098875" height="92.81231796098875" width="282.732649310535"><g id="textblocktransform"><svg viewBox="0 0 282.732649310535 92.81231796098875" height="92.81231796098875" width="282.732649310535" id="textblock"><g><svg viewBox="0 0 282.732649310535 59.1379" height="59.1379" width="282.732649310535"><g><svg><g></g><g></g></svg></g><g><svg><g><svg></svg></g><g></g></svg></g><g id="text-0"><svg viewBox="0 0 282.732649310535 59.1379" height="59.1379" width="282.732649310535"><g transform="matrix(1,0,0,1,0,0)"><svg width="189.14419999999998" viewBox="2 -36.05 116.89 36.55" height="59.1379" data-palette-color="#ee3e38"><path d="M6.1-33.7L6.1-0.8 2-0.4 2 0 26.5 0 27.75-10.9 27.15-11 23.75-2.45Q23.3-1.35 22.75-0.98 22.2-0.6 21-0.6L21-0.6 9.95-0.6 9.95-33.7 14.3-34.1 14.3-34.5 2-34.5 2-34.1 6.1-33.7ZM32.4-28.9Q32.4-29.95 33.07-30.63 33.75-31.3 34.8-31.3L34.8-31.3Q35.85-31.3 36.52-30.63 37.2-29.95 37.2-28.9L37.2-28.9Q37.2-27.85 36.52-27.18 35.85-26.5 34.8-26.5L34.8-26.5Q33.75-26.5 33.07-27.18 32.4-27.85 32.4-28.9L32.4-28.9ZM36.7-0.8L36.7-21.7 36.3-21.7 30.5-19.75 30.5-19.4 33.45-18.3 33.45-0.8 30.4-0.4 30.4 0 39.75 0 39.75-0.4 36.7-0.8ZM52.5-21.7Q55.4-21.7 57.65-20.3 59.9-18.9 61.15-16.38 62.4-13.85 62.4-10.6L62.4-10.6Q62.4-7.35 61.15-4.83 59.9-2.3 57.65-0.9 55.4 0.5 52.5 0.5L52.5 0.5Q49.6 0.5 47.35-0.9 45.1-2.3 43.85-4.83 42.6-7.35 42.6-10.6L42.6-10.6Q42.6-13.85 43.85-16.38 45.1-18.9 47.35-20.3 49.6-21.7 52.5-21.7L52.5-21.7ZM46.3-10.6Q46.3-5.6 47.95-2.8 49.6 0 52.5 0L52.5 0Q55.4 0 57.05-2.8 58.7-5.6 58.7-10.6L58.7-10.6Q58.7-15.6 57.05-18.4 55.4-21.2 52.5-21.2L52.5-21.2Q49.6-21.2 47.95-18.4 46.3-15.6 46.3-10.6L46.3-10.6ZM83.69-0.8L86.69-0.4 86.69 0 77.39 0 77.39-0.4 80.44-0.8 80.44-13.55Q80.44-15.5 80.34-16.45 80.24-17.4 79.94-18.05L79.94-18.05Q79.54-18.9 78.62-19.38 77.69-19.85 76.49-19.85L76.49-19.85Q73.94-19.85 71.94-17.7L71.94-17.7 71.94-0.8 74.99-0.4 74.99 0 65.64 0 65.64-0.4 68.69-0.8 68.69-18.05 65.74-19.15 65.74-19.5 71.39-21.45 71.79-21.45 71.79-18.3Q74.99-21.7 78.49-21.7L78.49-21.7Q80.04-21.7 81.32-21.03 82.59-20.35 83.14-19.25L83.14-19.25Q83.49-18.6 83.59-17.48 83.69-16.35 83.69-13.55L83.69-13.55 83.69-0.8ZM105.99-5.1L106.44-5.7 106.64-5.6 106.44-5.05Q105.44-2.4 103.47-0.95 101.49 0.5 98.74 0.5L98.74 0.5Q96.04 0.5 93.94-0.9 91.84-2.3 90.67-4.8 89.49-7.3 89.49-10.55L89.49-10.55Q89.49-13.8 90.74-16.35 91.99-18.9 94.29-20.3 96.59-21.7 99.54-21.7L99.54-21.7Q103.04-21.7 104.92-19.63 106.79-17.55 106.84-13.6L106.84-13.6 106.54-13.35 93.04-13.35Q92.94-12.05 92.94-11.3L92.94-11.3Q92.94-6.75 94.79-4.38 96.64-2 99.94-2L99.94-2Q101.64-2 103.22-2.78 104.79-3.55 105.99-5.1L105.99-5.1ZM98.99-21.15Q96.64-21.15 95.09-19.2 93.54-17.25 93.09-13.9L93.09-13.9 102.79-14.25Q102.94-14.85 102.94-16.25L102.94-16.25Q102.94-18.95 101.92-20.05 100.89-21.15 98.99-21.15L98.99-21.15ZM115.84-0.8L115.84-36.05 115.44-36.05 109.64-34.1 109.64-33.75 112.59-32.65 112.59-0.8 109.54-0.4 109.54 0 118.89 0 118.89-0.4 115.84-0.8Z" opacity="1" transform="matrix(1,0,0,1,0,0)" fill="#ee3e38" class="wordmark-text-0" data-fill-palette-color="primary"></path></svg></g><g><svg xmlns="http://www.w3.org/2000/svg" xmlns:xlink="http://www.w3.org/1999/xlink" version="1.1" x="203.10629999999998" y="0" viewBox="8.501 19.179 82.99799999999999 61.641999999999996" enable-background="new 0 0 100 100" xml:space="preserve" height="59.1379" width="79.62634931053503" class="icon-cg-0" data-fill-palette-color="accent" id="cg-0"><g fill="#ee3e38" data-fill-palette-color="accent"><polygon points="91.494,49.999 91.498,49.995 84.972,43.469 84.968,43.473 60.673,19.179 54.147,25.705 78.441,49.999    54.146,74.295 60.672,80.821 84.968,56.526 84.973,56.531 91.499,50.005  " fill="#ee3e38" data-fill-palette-color="accent"></polygon><polygon points="48.991,30.86 45.728,34.124 61.5,49.895 45.688,65.707 48.951,68.97 68.026,49.895  " fill="#ee3e38" data-fill-palette-color="accent"></polygon><polygon points="47.786,56.531 54.312,50.005 54.307,49.999 54.311,49.995 47.785,43.469 47.781,43.473 23.486,19.179    16.96,25.705 41.254,49.999 16.959,74.295 23.485,80.821 47.781,56.526  " fill="#ee3e38" data-fill-palette-color="accent"></polygon><polygon points="11.804,30.86 8.541,34.124 24.313,49.895 8.501,65.707 11.764,68.97 30.839,49.895  " fill="#ee3e38" data-fill-palette-color="accent"></polygon></g></svg></g></svg></g></svg></g><g transform="matrix(1,0,0,1,54.00193601831219,73.0989388804)"><svg viewBox="0 0 174.72877727391062 19.713379080588744" height="19.713379080588744" width="174.72877727391062"><g transform="matrix(1,0,0,1,0,0)"><svg width="174.72877727391062" viewBox="2.75 -25.35 230.43 26" height="19.713379080588744" data-palette-color="#ee3e38"><path d="M13.55 0.45Q12.9 0.35 10.93 0.18 8.95 0 7.6 0L7.6 0Q6.3 0 4.75 0.18 3.2 0.35 2.75 0.45L2.75 0.45 3-1.65Q4.8-1.95 5.45-2.65 6.1-3.35 6.1-4.95L6.1-4.95 6.15-20.85Q6.15-22.1 5.85-22.53 5.55-22.95 4.7-22.95L4.7-22.95Q4.25-22.95 3.85-22.9 3.45-22.85 3.3-22.85L3.3-22.85 3.2-23.1 3.5-25Q4-25 5.33-24.95 6.65-24.9 8-24.9L8-24.9Q9.8-24.9 11.7-24.98 13.6-25.05 14.3-25.05L14.3-25.05Q18.3-25.05 21.35-23.6 24.4-22.15 26.08-19.53 27.75-16.9 27.75-13.4L27.75-13.4Q27.75-9.5 25.88-6.35 24-3.2 20.75-1.38 17.5 0.45 13.55 0.45L13.55 0.45ZM11.65-22.7Q10.85-22.7 10.58-22.53 10.3-22.35 10.25-21.8L10.25-21.8Q9.65-7.75 9.65-5.3L9.65-5.3Q9.65-3.95 10.05-3.23 10.45-2.5 11.45-2.23 12.45-1.95 14.4-1.95L14.4-1.95Q18.6-1.95 20.98-4.7 23.35-7.45 23.35-12.4L23.35-12.4Q23.35-17.45 20.35-20.08 17.35-22.7 11.65-22.7L11.65-22.7ZM32.5 0.4L32.75-1.7Q34.6-1.9 35.25-2.6 35.9-3.3 35.9-5L35.9-5 35.95-20.85Q35.95-22.1 35.65-22.53 35.35-22.95 34.45-22.95L34.45-22.95 33.1-22.9 33-23.1 33.3-25Q33.9-25 35.65-24.95 37.4-24.9 39.45-24.9L39.45-24.9Q47.8-24.9 51.8-25.35L51.8-25.35 51.95-25.1Q51.85-24.55 51.5-22.6 51.15-20.65 51-18.4L51-18.4 48.6-18.2Q48.6-18.4 48.65-18.88 48.7-19.35 48.7-19.85L48.7-19.85Q48.7-21.15 48.32-21.68 47.95-22.2 46.77-22.38 45.6-22.55 42.7-22.55L42.7-22.55Q41.35-22.55 40.85-22.48 40.35-22.4 40.2-22.13 40.05-21.85 40-21.1L40-21.1 39.7-14 43.8-13.95Q44.7-13.95 46.45-14.13 48.2-14.3 48.75-14.35L48.75-14.35 48.95-14.1 48.35-11.5Q47.8-11.5 46.17-11.55 44.55-11.6 42.75-11.6L42.75-11.6Q41.35-11.6 39.6-11.35L39.6-11.35Q39.45-7.55 39.45-4.5L39.45-4.5Q39.45-3.35 39.62-2.9 39.8-2.45 40.42-2.3 41.05-2.15 42.5-2.15L42.5-2.15Q45.75-2.15 47.15-2.45 48.55-2.75 49.12-3.68 49.7-4.6 50.05-6.85L50.05-6.85 52.25-7.05 52.45-6.8Q52.3-6.25 51.92-4.23 51.55-2.2 51.35 0L51.35 0 51.05 0.25Q49.7 0.2 45.45 0.1 41.2 0 38.55 0L38.55 0Q36.5 0 34.75 0.18 33 0.35 32.5 0.4L32.5 0.4ZM65.9 0.65Q65.3-1.4 63.17-8.13 61.05-14.85 59.1-20.65L59.1-20.65Q58.75-21.75 57.87-22.3 57-22.85 55.5-22.95L55.5-22.95 55.4-23.1 55.7-25Q56.25-25 57.7-24.95 59.15-24.9 60.55-24.9L60.55-24.9Q62.05-24.9 64.15-25.08 66.25-25.25 66.9-25.3L66.9-25.3 67.05-25 66.9-23.2Q64.7-23.05 64.02-22.75 63.35-22.45 63.35-21.65L63.35-21.65Q63.35-20.85 65.37-13.8 67.4-6.75 68.15-4.2L68.15-4.2 68.6-4.2Q70.35-8.4 72.67-14.6 75-20.8 75-21.6L75-21.6Q75-22.4 74.4-22.73 73.8-23.05 72.35-23.05L72.35-23.05 70.35-23.05 70.25-23.25 70.5-25.15Q71.05-25.1 72.87-25 74.7-24.9 76.4-24.9L76.4-24.9Q77.95-24.9 79.25-24.95 80.55-25 81-25L81-25 80.65-22.95Q79.45-22.9 78.97-22.53 78.5-22.15 78.05-21L78.05-21 69.6-0.2 65.9 0.65ZM84.14 0.4L84.39-1.7Q86.24-1.9 86.89-2.6 87.54-3.3 87.54-5L87.54-5 87.59-20.85Q87.59-22.1 87.29-22.53 86.99-22.95 86.09-22.95L86.09-22.95 84.74-22.9 84.64-23.1 84.94-25Q85.54-25 87.29-24.95 89.04-24.9 91.09-24.9L91.09-24.9Q99.44-24.9 103.44-25.35L103.44-25.35 103.59-25.1Q103.49-24.55 103.14-22.6 102.79-20.65 102.64-18.4L102.64-18.4 100.24-18.2Q100.24-18.4 100.29-18.88 100.34-19.35 100.34-19.85L100.34-19.85Q100.34-21.15 99.97-21.68 99.59-22.2 98.42-22.38 97.24-22.55 94.34-22.55L94.34-22.55Q92.99-22.55 92.49-22.48 91.99-22.4 91.84-22.13 91.69-21.85 91.64-21.1L91.64-21.1 91.34-14 95.44-13.95Q96.34-13.95 98.09-14.13 99.84-14.3 100.39-14.35L100.39-14.35 100.59-14.1 99.99-11.5Q99.44-11.5 97.82-11.55 96.19-11.6 94.39-11.6L94.39-11.6Q92.99-11.6 91.24-11.35L91.24-11.35Q91.09-7.55 91.09-4.5L91.09-4.5Q91.09-3.35 91.27-2.9 91.44-2.45 92.07-2.3 92.69-2.15 94.14-2.15L94.14-2.15Q97.39-2.15 98.79-2.45 100.19-2.75 100.77-3.68 101.34-4.6 101.69-6.85L101.69-6.85 103.89-7.05 104.09-6.8Q103.94-6.25 103.57-4.23 103.19-2.2 102.99 0L102.99 0 102.69 0.25Q101.34 0.2 97.09 0.1 92.84 0 90.19 0L90.19 0Q88.14 0 86.39 0.18 84.64 0.35 84.14 0.4L84.14 0.4ZM109.89 0.4L110.19-1.7Q111.79-1.95 112.37-2.63 112.94-3.3 112.94-5L112.94-5 112.99-20.85Q112.99-22.1 112.69-22.53 112.39-22.95 111.49-22.95L111.49-22.95 110.14-22.9 109.99-23.1 110.29-25Q110.54-25 111.79-24.95 113.04-24.9 115.14-24.9L115.14-24.9Q116.24-24.9 117.87-25.05 119.49-25.2 119.99-25.25L119.99-25.25 119.79-23.15Q118.44-23 117.89-22.68 117.34-22.35 117.24-21.85 117.14-21.35 116.99-19.8L116.99-19.8Q116.49-13.1 116.49-4.95L116.49-4.95Q116.49-3.7 116.72-3.13 116.94-2.55 117.62-2.35 118.29-2.15 119.74-2.15L119.74-2.15Q122.14-2.15 123.27-2.55 124.39-2.95 124.97-4.13 125.54-5.3 125.99-7.85L125.99-7.85 128.19-8.1 128.34-7.8Q128.24-7.15 127.87-4.83 127.49-2.5 127.19 0.05L127.19 0.05 126.94 0.35Q125.79 0.3 122.07 0.15 118.34 0 115.79 0L115.79 0Q113.79 0 112.07 0.18 110.34 0.35 109.89 0.4L109.89 0.4ZM142.49 0.45Q139.09 0.45 136.46-1.05 133.84-2.55 132.41-5.3 130.99-8.05 130.99-11.65L130.99-11.65Q130.99-15.55 132.76-18.68 134.54-21.8 137.61-23.58 140.69-25.35 144.49-25.35L144.49-25.35Q147.94-25.35 150.59-23.85 153.24-22.35 154.69-19.63 156.14-16.9 156.14-13.3L156.14-13.3Q156.14-9.4 154.36-6.28 152.59-3.15 149.46-1.35 146.34 0.45 142.49 0.45L142.49 0.45ZM143.69-1.95Q147.34-1.95 149.59-4.58 151.84-7.2 151.84-11.55L151.84-11.55Q151.84-14.85 150.76-17.35 149.69-19.85 147.71-21.2 145.74-22.55 143.14-22.55L143.14-22.55Q139.59-22.55 137.41-19.95 135.24-17.35 135.24-13L135.24-13Q135.24-9.7 136.29-7.2 137.34-4.7 139.26-3.33 141.19-1.95 143.69-1.95L143.69-1.95ZM161.09 0.3L161.39-1.75Q163.14-2.05 163.71-2.68 164.29-3.3 164.29-4.95L164.29-4.95 164.34-20.85Q164.34-22.1 164.04-22.53 163.74-22.95 162.89-22.95L162.89-22.95 161.49-22.9 161.34-23.1 161.64-25Q161.89-25 163.11-24.95 164.34-24.9 166.34-24.9L166.34-24.9Q167.69-24.9 169.39-24.98 171.09-25.05 171.79-25.05L171.79-25.05Q176.29-25.05 178.56-23.15 180.84-21.25 180.84-17.95L180.84-17.95Q180.84-15.75 179.49-13.75 178.14-11.75 175.96-10.53 173.79-9.3 171.34-9.3L171.34-9.3 167.89-9.3 167.84-5.8Q167.84-4.05 167.96-3.28 168.09-2.5 168.44-2.25 168.79-2 169.64-2L169.64-2Q170.29-2 170.94-2.05 171.59-2.1 171.79-2.1L171.79-2.1 171.89-1.9 171.49 0.1Q171.04 0.1 169.84 0.05 168.64 0 167.39 0L167.39 0Q165.74 0 163.44 0.1 161.14 0.2 161.09 0.3L161.09 0.3ZM172.14-11.45Q176.79-12.2 176.79-17.25L176.79-17.25Q176.79-20.05 175.04-21.38 173.29-22.7 169.49-22.7L169.49-22.7Q168.79-22.7 168.64-22.63 168.49-22.55 168.44-22.1L168.44-22.1Q168.04-15.75 167.99-12L167.99-12 172.14-11.45ZM184.83 0.4L185.08-1.7Q186.93-1.9 187.58-2.6 188.23-3.3 188.23-5L188.23-5 188.28-20.85Q188.28-22.1 187.98-22.53 187.68-22.95 186.78-22.95L186.78-22.95 185.43-22.9 185.33-23.1 185.63-25Q186.23-25 187.98-24.95 189.73-24.9 191.78-24.9L191.78-24.9Q200.13-24.9 204.13-25.35L204.13-25.35 204.28-25.1Q204.18-24.55 203.83-22.6 203.48-20.65 203.33-18.4L203.33-18.4 200.93-18.2Q200.93-18.4 200.98-18.88 201.03-19.35 201.03-19.85L201.03-19.85Q201.03-21.15 200.66-21.68 200.28-22.2 199.11-22.38 197.93-22.55 195.03-22.55L195.03-22.55Q193.68-22.55 193.18-22.48 192.68-22.4 192.53-22.13 192.38-21.85 192.33-21.1L192.33-21.1 192.03-14 196.13-13.95Q197.03-13.95 198.78-14.13 200.53-14.3 201.08-14.35L201.08-14.35 201.28-14.1 200.68-11.5Q200.13-11.5 198.51-11.55 196.88-11.6 195.08-11.6L195.08-11.6Q193.68-11.6 191.93-11.35L191.93-11.35Q191.78-7.55 191.78-4.5L191.78-4.5Q191.78-3.35 191.96-2.9 192.13-2.45 192.76-2.3 193.38-2.15 194.83-2.15L194.83-2.15Q198.08-2.15 199.48-2.45 200.88-2.75 201.46-3.68 202.03-4.6 202.38-6.85L202.38-6.85 204.58-7.05 204.78-6.8Q204.63-6.25 204.26-4.23 203.88-2.2 203.68 0L203.68 0 203.38 0.25Q202.03 0.2 197.78 0.1 193.53 0 190.88 0L190.88 0Q188.83 0 187.08 0.18 185.33 0.35 184.83 0.4L184.83 0.4ZM229.08 0.6Q227.98 0.6 226.83-0.38 225.68-1.35 224.73-3.05L224.73-3.05 220.53-10.4 217.28-10.4 217.18-5.05Q217.18-3.6 217.38-2.98 217.58-2.35 218.16-2.15 218.73-1.95 220.13-1.9L220.13-1.9 220.23-1.75 219.83 0.15Q219.23 0.1 217.66 0.08 216.08 0.05 214.48 0.05L214.48 0.05Q212.93 0.05 211.78 0.1 210.63 0.15 210.23 0.2L210.23 0.2 210.58-1.85Q212.43-2.1 213.03-2.7 213.63-3.3 213.63-4.95L213.63-4.95 213.68-20.9Q213.68-22.1 213.38-22.53 213.08-22.95 212.23-22.95L212.23-22.95 210.83-22.9 210.68-23.1 210.98-25Q211.48-25 212.88-24.95 214.28-24.9 215.68-24.9L215.68-24.9Q217.13-24.9 218.78-24.98 220.43-25.05 221.03-25.05L221.03-25.05Q225.08-25.05 227.38-23.38 229.68-21.7 229.68-18.75L229.68-18.75Q229.68-16.45 228.13-14.5 226.58-12.55 223.78-11.3L223.78-11.3 228.03-4.9Q229.23-3.1 230.33-2.35 231.43-1.6 232.98-1.6L232.98-1.6 233.18-1.35 232.93 0.2 229.08 0.6ZM221.43-12.6Q222.38-13 223.11-13.38 223.83-13.75 224.73-14.95 225.63-16.15 225.63-18.05L225.63-18.05Q225.63-22.9 218.48-22.9L218.48-22.9Q218.08-22.9 217.93-22.73 217.78-22.55 217.78-22L217.78-22Q217.38-15.9 217.38-13L217.38-13 221.43-12.6Z" opacity="1" transform="matrix(1,0,0,1,0,0)" fill="#ee3e38" class="slogan-text-1" data-fill-palette-color="secondary" id="text-1"></path></svg></g></svg></g></svg></g></svg></g><g></g></svg></g><defs></defs></svg><rect width="282.732649310535" height="92.81231796098875" fill="none" stroke="none" visibility="hidden"></rect></g></svg></g></svg>